<svg width="24" height="24" viewBox="0 0 24 24" fill="none" xmlns="http://www.w3.org/2000/svg">
<path fill-rule="evenodd" clip-rule="evenodd" d="M12 9.69229C9.80432 9.69229 6.79857 9.86402 4.95181 9.98534C4.35538 10.0245 3.88323 10.4754 3.81882 11.0569C3.68544 12.2608 3.53849 13.8676 3.53849 15.0769C3.53849 16.2862 3.68544 17.893 3.81882 19.097C3.88323 19.6784 4.35538 20.1293 4.95181 20.1685C6.79857 20.2898 9.80432 20.4615 12 20.4615C14.1957 20.4615 17.2015 20.2898 19.0483 20.1685C19.6447 20.1293 20.1168 19.6784 20.1812 19.097C20.3146 17.893 20.4616 16.2862 20.4616 15.0769C20.4616 13.8676 20.3146 12.2608 20.1812 11.0569C20.1168 10.4754 19.6447 10.0245 19.0483 9.98534C17.2015 9.86402 14.1957 9.69229 12 9.69229ZM4.85096 8.45019C6.69828 8.32883 9.74881 8.15383 12 8.15383C14.2513 8.15383 17.3018 8.32883 19.1491 8.45019C20.477 8.53742 21.5624 9.55216 21.7104 10.8875C21.8444 12.0977 22 13.7766 22 15.0769C22 16.3772 21.8444 18.0561 21.7104 19.2664C21.5624 20.6017 20.477 21.6164 19.1491 21.7036C17.3018 21.825 14.2513 22 12 22C9.74881 22 6.69828 21.825 4.85096 21.7036C3.52307 21.6164 2.43764 20.6017 2.28971 19.2664C2.15563 18.0561 2.00003 16.3772 2.00003 15.0769C2.00003 13.7766 2.15563 12.0977 2.28971 10.8875C2.43764 9.55216 3.52307 8.53742 4.85096 8.45019Z" fill="#030D45"/>
<path fill-rule="evenodd" clip-rule="evenodd" d="M12 6.61537C10.3995 6.61537 8.24803 6.6906 6.79992 6.75002C6.21385 6.77407 5.76199 7.18451 5.69119 7.70432C5.63178 8.14045 5.58977 8.57651 5.58977 8.92306C5.58977 9.3479 5.24538 9.69229 4.82054 9.69229C4.39571 9.69229 4.05131 9.3479 4.05131 8.92306C4.05131 8.47391 4.10393 7.95826 4.1668 7.49668C4.34648 6.17763 5.46863 5.2649 6.73684 5.21285C8.18628 5.15337 10.3653 5.07691 12 5.07691C13.6348 5.07691 15.8138 5.15337 17.2632 5.21285C18.5314 5.2649 19.6536 6.17763 19.8333 7.49668C19.8961 7.95826 19.9487 8.47391 19.9487 8.92306C19.9487 9.3479 19.6044 9.69229 19.1795 9.69229C18.7547 9.69229 18.4103 9.3479 18.4103 8.92306C18.4103 8.57651 18.3683 8.14044 18.3089 7.70432C18.2381 7.18451 17.7862 6.77407 17.2001 6.75002C15.752 6.6906 13.6005 6.61537 12 6.61537Z" fill="#030D45"/>
<path fill-rule="evenodd" clip-rule="evenodd" d="M12 3.53845C11.045 3.53845 9.80592 3.59167 8.81796 3.64422C8.22112 3.67596 7.75989 4.11836 7.70775 4.6729C7.66863 5.08894 7.64106 5.50608 7.64106 5.84614C7.64106 6.27097 7.29666 6.61537 6.87183 6.61537C6.44699 6.61537 6.10259 6.27097 6.10259 5.84614C6.10259 5.43604 6.1351 4.96434 6.17604 4.52887C6.30336 3.17482 7.41877 2.178 8.73624 2.10793C9.72884 2.05513 11.0019 1.99998 12 1.99998C12.9982 1.99998 14.2712 2.05513 15.2638 2.10793C16.5813 2.178 17.6967 3.17482 17.824 4.52887C17.865 4.96434 17.8975 5.43604 17.8975 5.84614C17.8975 6.27097 17.5531 6.61537 17.1282 6.61537C16.7034 6.61537 16.359 6.27097 16.359 5.84614C16.359 5.50608 16.3314 5.08894 16.2923 4.6729C16.2402 4.11836 15.7789 3.67596 15.1821 3.64422C14.1941 3.59167 12.9551 3.53845 12 3.53845Z" fill="#030D45"/>
<path fill-rule="evenodd" clip-rule="evenodd" d="M10.0056 13.0825C10.306 12.7821 10.7931 12.7821 11.0935 13.0825L13.9944 15.9835C14.2948 16.2839 14.2948 16.7709 13.9944 17.0713C13.694 17.3717 13.207 17.3717 12.9066 17.0713L10.0056 14.1704C9.70522 13.87 9.70522 13.3829 10.0056 13.0825Z" fill="#030D45"/>
<path fill-rule="evenodd" clip-rule="evenodd" d="M10.0056 17.0713C9.70522 16.7709 9.70522 16.2839 10.0056 15.9835L12.9066 13.0825C13.207 12.7821 13.694 12.7821 13.9944 13.0825C14.2948 13.3829 14.2948 13.87 13.9944 14.1704L11.0935 17.0713C10.7931 17.3717 10.306 17.3717 10.0056 17.0713Z" fill="#030D45"/>
</svg>
