<svg width="24" height="24" viewBox="0 0 24 24" fill="none" xmlns="http://www.w3.org/2000/svg">
<path fill-rule="evenodd" clip-rule="evenodd" d="M8.92301 4.54286C7.64851 4.54286 6.61532 5.579 6.61532 6.85714C6.61532 8.13529 7.64851 9.17143 8.92301 9.17143C10.1975 9.17143 11.2307 8.13529 11.2307 6.85714C11.2307 5.579 10.1975 4.54286 8.92301 4.54286ZM5.07686 6.85714C5.07686 4.7269 6.79884 3 8.92301 3C11.0472 3 12.7692 4.7269 12.7692 6.85714C12.7692 8.98738 11.0472 10.7143 8.92301 10.7143C6.79884 10.7143 5.07686 8.98738 5.07686 6.85714Z" fill="#030D45"/>
<path fill-rule="evenodd" clip-rule="evenodd" d="M1.99995 6.85726C1.99995 6.43121 2.34435 6.08583 2.76918 6.08583H5.84611C6.27094 6.08583 6.61532 6.43109 6.61532 6.85714C6.61532 7.28319 6.27094 7.62868 5.84611 7.62868H2.76918C2.34435 7.62868 1.99995 7.2833 1.99995 6.85726Z" fill="#030D45"/>
<path fill-rule="evenodd" clip-rule="evenodd" d="M11.2307 6.85714C11.2307 6.43109 11.5751 6.08594 11.9999 6.08594L21.2307 6.08594C21.6555 6.08594 21.9999 6.43132 21.9999 6.85737C21.9999 7.28341 21.6555 7.62879 21.2307 7.62879L11.9999 7.62879C11.5751 7.62879 11.2307 7.28319 11.2307 6.85714Z" fill="#030D45"/>
<path fill-rule="evenodd" clip-rule="evenodd" d="M15.0769 14.8285C16.3514 14.8285 17.3845 15.8646 17.3845 17.1428C17.3845 18.4209 16.3514 19.4571 15.0769 19.4571C13.8023 19.4571 12.7692 18.4209 12.7692 17.1428C12.7692 15.8646 13.8023 14.8285 15.0769 14.8285ZM18.923 17.1428C18.923 15.0125 17.201 13.2856 15.0769 13.2856C12.9527 13.2856 11.2307 15.0125 11.2307 17.1428C11.2307 19.273 12.9527 20.9999 15.0769 20.9999C17.201 20.9999 18.923 19.273 18.923 17.1428Z" fill="#030D45"/>
<path fill-rule="evenodd" clip-rule="evenodd" d="M21.9999 17.1429C21.9999 16.7169 21.6555 16.3715 21.2307 16.3715H18.1538C17.7289 16.3715 17.3845 16.7167 17.3845 17.1428C17.3845 17.5688 17.7289 17.9144 18.1538 17.9144H21.2307C21.6555 17.9144 21.9999 17.569 21.9999 17.1429Z" fill="#030D45"/>
<path fill-rule="evenodd" clip-rule="evenodd" d="M12.7692 17.1428C12.7692 16.7167 12.4248 16.3716 12 16.3716L2.76921 16.3716C2.34437 16.3716 1.99998 16.717 1.99998 17.143C1.99998 17.5691 2.34437 17.9144 2.76921 17.9144L12 17.9144C12.4248 17.9144 12.7692 17.5688 12.7692 17.1428Z" fill="#030D45"/>
</svg>
